<?xml version="1.0" encoding="UTF-8"?><svg xmlns="http://www.w3.org/2000/svg" xmlns:xlink="http://www.w3.org/1999/xlink" height="356.4" preserveAspectRatio="xMidYMid meet" version="1.0" viewBox="0.0 0.0 422.3 356.4" width="422.3" zoomAndPan="magnify"><g id="change1_1"><path d="M421.67,213.926c-0.21-3.58-0.62-7.12-1.24-10.62c-0.199,1.128-0.421,2.251-0.661,3.371 c0.239-1.119,0.463-2.242,0.661-3.371c-11.91-67.96-98.9-120.69-204.44-120.69c-105.55,0-192.53,52.73-204.44,120.69 c0.199,1.134,0.423,2.262,0.664,3.388c-0.241-1.125-0.465-2.254-0.664-3.388c-0.62,3.5-1.03,7.04-1.24,10.62 c-0.11,1.77-0.16,3.56-0.16,5.35c0,75.48,92.15,136.66,205.84,136.66c113.68,0,205.84-61.18,205.84-136.66 C421.83,217.486,421.78,215.696,421.67,213.926z M12.495,207.915c0.163,0.714,0.327,1.428,0.507,2.139 C12.822,209.343,12.658,208.629,12.495,207.915z M13.384,211.494c0.17,0.633,0.343,1.265,0.527,1.895 C13.727,212.76,13.555,212.127,13.384,211.494z M14.368,214.903c0.186,0.602,0.377,1.202,0.575,1.801 C14.746,216.106,14.554,215.505,14.368,214.903z M15.463,218.239c0.206,0.59,0.42,1.177,0.637,1.764 C15.883,219.416,15.669,218.829,15.463,218.239z M16.671,221.523c0.232,0.597,0.476,1.19,0.719,1.784 C17.147,222.713,16.903,222.119,16.671,221.523z M17.993,224.766c0.283,0.66,0.581,1.315,0.879,1.97 C18.574,226.08,18.276,225.425,17.993,224.766z M19.427,227.97c0.481,1.026,0.981,2.046,1.497,3.062 C20.408,230.016,19.908,228.996,19.427,227.97z M21.602,232.316c0.326,0.62,0.65,1.241,0.989,1.857 C22.252,233.557,21.928,232.937,21.602,232.316z M23.38,235.568c0.327,0.575,0.655,1.15,0.994,1.722 C24.036,236.718,23.708,236.143,23.38,235.568z M25.222,238.69c0.346,0.565,0.695,1.128,1.051,1.689 C25.917,239.818,25.568,239.254,25.222,238.69z M27.161,241.752c0.372,0.568,0.752,1.134,1.135,1.698 C27.912,242.886,27.533,242.32,27.161,241.752z M29.202,244.77c0.411,0.588,0.832,1.172,1.256,1.755 C30.034,245.941,29.613,245.357,29.202,244.77z M31.344,247.742c0.492,0.661,0.997,1.316,1.505,1.971 C32.342,249.059,31.836,248.403,31.344,247.742z M33.588,250.672c0.764,0.967,1.544,1.929,2.342,2.882 C35.133,252.601,34.353,251.64,33.588,250.672z M36.34,254.031c0.674,0.798,1.356,1.592,2.054,2.38 C37.696,255.624,37.014,254.829,36.34,254.031z M42.38,260.724c1.055,1.097,2.127,2.187,3.227,3.263 C44.506,262.911,43.435,261.821,42.38,260.724z M39.005,257.088c0.833,0.929,1.683,1.851,2.549,2.766 C40.688,258.939,39.838,258.017,39.005,257.088z M209.699,323.866c2.09,0.042,4.185,0.07,6.291,0.07c2.105,0,4.2-0.029,6.29-0.07 c-2.09,0.042-4.185,0.07-6.29,0.07C213.885,323.936,211.79,323.908,209.699,323.866z M45.755,264.128 c1.059,1.032,2.144,2.05,3.243,3.061C47.899,266.178,46.814,265.16,45.755,264.128z M49.904,268.015 c1.024,0.927,2.063,1.846,3.121,2.755C51.967,269.861,50.929,268.942,49.904,268.015z M53.476,271.162 c1.203,1.026,2.432,2.038,3.678,3.04C55.908,273.2,54.679,272.188,53.476,271.162z M58.052,274.916 c1.04,0.826,2.095,1.643,3.164,2.452C60.147,276.559,59.093,275.741,58.052,274.916z M62.025,277.982 c1.298,0.971,2.616,1.929,3.955,2.875C64.641,279.911,63.323,278.952,62.025,277.982z M66.732,281.379 c1.135,0.793,2.285,1.577,3.448,2.352C69.017,282.956,67.867,282.172,66.732,281.379z M71.193,284.404 c1.398,0.919,2.811,1.828,4.248,2.72C74.004,286.232,72.591,285.323,71.193,284.404z M75.72,287.294 c1.349,0.834,2.719,1.654,4.101,2.464C78.439,288.948,77.069,288.128,75.72,287.294z M80.935,290.406 c1.357,0.784,2.727,1.559,4.115,2.319C83.662,291.964,82.292,291.19,80.935,290.406z M85.455,292.95 c1.521,0.829,3.063,1.64,4.62,2.44C88.518,294.59,86.976,293.779,85.455,292.95z M91.193,295.958 c1.303,0.661,2.618,1.311,3.945,1.951C93.811,297.269,92.497,296.619,91.193,295.958z M96.074,298.363 c1.59,0.758,3.198,1.501,4.822,2.23C99.272,299.864,97.664,299.121,96.074,298.363z M101.884,301.028 c1.359,0.602,2.729,1.193,4.11,1.774C104.612,302.221,103.242,301.63,101.884,301.028z M107.2,303.308 c1.671,0.692,3.355,1.372,5.058,2.033C110.555,304.681,108.872,304.001,107.2,303.308z M112.782,305.54 c1.542,0.594,3.098,1.173,4.665,1.742C115.881,306.714,114.324,306.134,112.782,305.54z M118.795,307.767 c1.627,0.58,3.264,1.148,4.917,1.7C122.059,308.915,120.422,308.346,118.795,307.767z M124.076,309.59 c1.767,0.586,3.552,1.152,5.348,1.705C127.628,310.742,125.843,310.176,124.076,309.59z M130.801,311.713 c1.497,0.453,3.004,0.894,4.521,1.323C133.805,312.607,132.298,312.165,130.801,311.713z M136.386,313.34 c1.817,0.506,3.648,0.995,5.492,1.467C140.034,314.335,138.203,313.846,136.386,313.34z M143.123,315.119 c1.516,0.381,3.041,0.75,4.573,1.108C146.164,315.869,144.639,315.5,143.123,315.119z M149.093,316.553 c1.878,0.428,3.765,0.842,5.667,1.235C152.859,317.394,150.971,316.981,149.093,316.553z M155.591,317.953 c1.66,0.338,3.33,0.66,5.008,0.971C158.921,318.613,157.251,318.291,155.591,317.953z M162.158,319.209 c1.86,0.334,3.728,0.655,5.608,0.955C165.886,319.864,164.018,319.542,162.158,319.209z M168.025,320.206 c1.959,0.31,3.932,0.596,5.911,0.869C171.956,320.802,169.984,320.517,168.025,320.206z M175.522,321.287 c1.654,0.219,3.314,0.425,4.981,0.617C178.836,321.712,177.175,321.506,175.522,321.287z M181.644,322.039 c1.989,0.222,3.988,0.423,5.995,0.606C185.632,322.462,183.633,322.261,181.644,322.039z M189.106,322.772 c1.634,0.141,3.273,0.27,4.919,0.386C192.38,323.042,190.74,322.913,189.106,322.772z M195.552,323.265 c2.033,0.133,4.074,0.249,6.125,0.343C199.626,323.515,197.585,323.398,195.552,323.265z M202.74,323.65 c1.75,0.074,3.506,0.132,5.268,0.177C206.246,323.782,204.49,323.723,202.74,323.65z M385.808,264.519 c-0.888,0.859-1.791,1.71-2.708,2.555C384.018,266.23,384.92,265.378,385.808,264.519z M381.938,268.135 c-0.897,0.81-1.806,1.613-2.729,2.409C380.131,269.747,381.041,268.944,381.938,268.135z M378.426,271.224 c-1.154,0.983-2.331,1.952-3.524,2.913C376.095,273.176,377.272,272.206,378.426,271.224z M373.794,275.016 c-0.954,0.755-1.92,1.504-2.898,2.245C371.874,276.52,372.84,275.772,373.794,275.016z M369.887,278.028 c-1.261,0.942-2.541,1.873-3.841,2.792C367.346,279.901,368.626,278.97,369.887,278.028z M365.118,281.464 c-1.072,0.748-2.156,1.487-3.253,2.219C362.962,282.952,364.046,282.212,365.118,281.464z M360.733,284.435 c-1.374,0.902-2.762,1.795-4.173,2.672C357.971,286.231,359.359,285.338,360.733,284.435z M356.14,287.362 c-1.302,0.804-2.622,1.594-3.955,2.376C353.518,288.957,354.838,288.166,356.14,287.362z M351.007,290.424 c-1.329,0.768-2.671,1.526-4.03,2.271C348.335,291.95,349.677,291.192,351.007,290.424z M346.505,292.957 c-1.512,0.824-3.047,1.631-4.594,2.427C343.458,294.588,344.993,293.781,346.505,292.957z M340.763,295.966 c-1.296,0.657-2.603,1.303-3.922,1.94C338.16,297.27,339.468,296.623,340.763,295.966z M335.897,298.364 c-1.591,0.758-3.2,1.502-4.824,2.231C332.698,299.866,334.306,299.122,335.897,298.364z M330.1,301.023 c-1.367,0.606-2.745,1.2-4.135,1.784C327.355,302.223,328.734,301.629,330.1,301.023z M324.782,303.305 c-1.678,0.695-3.368,1.377-5.077,2.041C321.414,304.682,323.104,303.999,324.782,303.305z M319.228,305.526 c-1.561,0.602-3.137,1.188-4.723,1.763C316.091,306.714,317.667,306.128,319.228,305.526z M313.198,307.759 c-1.655,0.59-3.32,1.169-5.002,1.729C309.878,308.928,311.543,308.349,313.198,307.759z M307.912,309.585 c-1.779,0.591-3.577,1.16-5.385,1.717C304.335,310.745,306.133,310.176,307.912,309.585z M301.204,311.703 c-1.523,0.46-3.055,0.909-4.598,1.346C298.149,312.613,299.681,312.164,301.204,311.703z M295.605,313.335 c-1.829,0.51-3.672,1.002-5.527,1.477C291.933,314.337,293.776,313.845,295.605,313.335z M288.889,315.109 c-1.539,0.387-3.087,0.762-4.643,1.125C285.802,315.871,287.35,315.496,288.889,315.109z M282.899,316.548 c-1.888,0.431-3.786,0.847-5.699,1.242C279.112,317.395,281.011,316.979,282.899,316.548z M276.429,317.944 c-1.682,0.342-3.373,0.669-5.073,0.984C273.055,318.613,274.747,318.286,276.429,317.944z M269.834,319.206 c-1.883,0.338-3.773,0.664-5.676,0.966C266.061,319.869,267.951,319.543,269.834,319.206z M263.96,320.205 c-1.966,0.312-3.946,0.598-5.933,0.872C260.015,320.803,261.995,320.516,263.96,320.205z M256.468,321.286 c-1.665,0.22-3.337,0.428-5.016,0.622C253.131,321.714,254.803,321.506,256.468,321.286z M250.339,322.039 c-1.992,0.222-3.995,0.424-6.007,0.607C246.344,322.462,248.347,322.261,250.339,322.039z M242.88,322.771 c-1.638,0.142-3.283,0.271-4.933,0.387C239.597,323.042,241.241,322.913,242.88,322.771z M236.429,323.265 c-2.035,0.133-4.077,0.249-6.128,0.343C232.352,323.515,234.394,323.398,236.429,323.265z M229.242,323.649 c-1.751,0.074-3.509,0.132-5.271,0.177C225.733,323.782,227.491,323.723,229.242,323.649z M386.627,263.729 c0.964-0.946,1.906-1.903,2.835-2.866C388.533,261.826,387.59,262.782,386.627,263.729z M419.461,208.018 c-0.153,0.668-0.306,1.337-0.474,2.002C419.154,209.355,419.308,208.686,419.461,208.018z M418.569,211.591 c-0.157,0.581-0.315,1.161-0.483,1.739C418.253,212.753,418.412,212.172,418.569,211.591z M417.581,214.999 c-0.167,0.538-0.338,1.074-0.514,1.61C417.243,216.073,417.414,215.536,417.581,214.999z M416.483,218.332 c-0.177,0.505-0.361,1.009-0.546,1.512C416.122,219.34,416.306,218.837,416.483,218.332z M415.271,221.616 c-0.183,0.469-0.375,0.935-0.565,1.402C414.896,222.55,415.089,222.084,415.271,221.616z M413.947,224.855 c-0.17,0.396-0.352,0.789-0.528,1.184C413.595,225.645,413.777,225.252,413.947,224.855z M410.032,232.967 c-0.193,0.362-0.381,0.725-0.578,1.085C409.651,233.692,409.838,233.329,410.032,232.967z M408.386,235.937 c-0.229,0.399-0.456,0.799-0.691,1.197C407.93,236.737,408.157,236.337,408.386,235.937z M406.591,238.958 c-0.251,0.407-0.502,0.813-0.758,1.218C406.089,239.771,406.34,239.365,406.591,238.958z M404.677,241.966 c-0.266,0.404-0.536,0.806-0.807,1.207C404.141,242.772,404.411,242.369,404.677,241.966z M402.65,244.948 c-0.274,0.39-0.554,0.777-0.834,1.165C402.096,245.725,402.377,245.338,402.65,244.948z M400.519,247.894 c-0.265,0.355-0.54,0.707-0.809,1.06C399.98,248.601,400.254,248.25,400.519,247.894z M398.282,250.808 c-0.035,0.045-0.073,0.089-0.108,0.133C398.209,250.896,398.246,250.853,398.282,250.808z M394.489,255.365 c-0.259,0.298-0.512,0.6-0.774,0.897C393.978,255.965,394.231,255.664,394.489,255.365z M392.664,257.426 c-0.676,0.749-1.361,1.494-2.058,2.233C391.303,258.919,391.988,258.175,392.664,257.426z" fill="#F7A374"/></g><g id="change2_1"><path d="M422.169,213.897c-0.21-3.576-0.625-7.137-1.231-10.586l0.001-0.005l-0.014-0.078 c0-0.003-0.001-0.006-0.001-0.009l-0.493-2.79l-0.022,0.124C406.535,132.844,319.368,82.116,215.99,82.116 c-103.376,0-190.542,50.726-204.417,118.434l-0.021-0.12l-0.491,2.77c-0.001,0.007-0.003,0.013-0.004,0.02l-0.015,0.086l0.001,0.005 c-0.607,3.446-1.023,7.007-1.232,10.584c-0.106,1.717-0.161,3.527-0.161,5.381c0,75.631,92.563,137.16,206.34,137.16 s206.34-61.529,206.34-137.16C422.33,217.419,422.275,215.61,422.169,213.897z M215.99,83.116 c104.206,0,191.854,51.663,203.932,120.187c-0.041,0.232-0.092,0.462-0.135,0.694c-0.157,0.851-0.319,1.702-0.499,2.549 c-0.108,0.506-0.232,1.008-0.348,1.512c-0.133,0.58-0.263,1.16-0.407,1.738c-0.142,0.566-0.298,1.128-0.45,1.691 c-0.139,0.516-0.274,1.033-0.422,1.547c-0.163,0.565-0.338,1.126-0.511,1.688c-0.16,0.52-0.318,1.04-0.487,1.558 c-0.172,0.526-0.354,1.049-0.534,1.573c-0.196,0.567-0.392,1.133-0.598,1.697c-0.167,0.456-0.341,0.911-0.514,1.365 c-0.251,0.656-0.506,1.311-0.772,1.964c-0.142,0.349-0.287,0.697-0.433,1.046c-0.336,0.8-0.681,1.598-1.039,2.394 c-0.086,0.193-0.173,0.385-0.261,0.578c-4.422,9.653-10.477,18.955-18.128,27.827c1.408-6.069,2.127-12.264,2.127-18.448 c0-1.517-0.047-3.101-0.141-4.71c-0.191-3.164-0.561-6.309-1.097-9.346c-10.58-60.404-87.655-105.954-179.282-105.954 S47.288,161.816,36.708,222.219c-0.536,3.034-0.904,6.179-1.097,9.348c-0.094,1.605-0.141,3.189-0.141,4.709 c0,6.184,0.72,12.379,2.128,18.449c-7.692-8.92-13.773-18.273-18.201-27.981c-0.034-0.075-0.068-0.15-0.102-0.225 c-0.415-0.915-0.811-1.835-1.197-2.757c-0.102-0.245-0.204-0.489-0.304-0.734c-0.311-0.76-0.608-1.522-0.898-2.286 c-0.137-0.36-0.275-0.72-0.407-1.082c-0.243-0.662-0.474-1.326-0.702-1.991c-0.149-0.436-0.301-0.872-0.444-1.309 c-0.199-0.609-0.386-1.22-0.573-1.831c-0.146-0.479-0.296-0.957-0.435-1.438c-0.172-0.597-0.331-1.198-0.491-1.797 c-0.131-0.488-0.267-0.974-0.39-1.464c-0.162-0.647-0.308-1.297-0.456-1.946c-0.101-0.44-0.209-0.879-0.304-1.321 c-0.186-0.874-0.353-1.75-0.515-2.628c-0.039-0.211-0.085-0.419-0.122-0.63C24.136,134.779,111.784,83.116,215.99,83.116z M222.204,323.367c-2.068,0.042-4.138,0.069-6.214,0.069c-2.076,0-4.147-0.027-6.215-0.069c-0.413-0.008-0.824-0.019-1.237-0.029 c-0.445-0.016-0.889-0.031-1.334-0.044c-1.576-0.045-3.154-0.087-4.725-0.157c-1.231-0.055-2.455-0.134-3.682-0.204 c-1.006-0.057-2.016-0.1-3.019-0.167c-1.383-0.092-2.758-0.21-4.135-0.32c-0.841-0.067-1.687-0.121-2.526-0.196 c-1.448-0.128-2.887-0.283-4.328-0.431c-0.761-0.078-1.527-0.144-2.286-0.228c-1.407-0.156-2.805-0.338-4.205-0.513 c-0.786-0.098-1.577-0.184-2.36-0.288c-1.491-0.199-2.972-0.423-4.455-0.643c-0.683-0.101-1.371-0.19-2.051-0.296 c-1.606-0.25-3.201-0.526-4.796-0.802c-0.549-0.095-1.103-0.178-1.65-0.276c-1.72-0.307-3.427-0.64-5.132-0.976 c-0.414-0.082-0.834-0.154-1.247-0.237c-1.692-0.341-3.37-0.708-5.047-1.077c-0.421-0.093-0.846-0.176-1.266-0.27 c-1.638-0.369-3.262-0.763-4.884-1.159c-0.45-0.11-0.905-0.21-1.353-0.321c-1.738-0.434-3.462-0.891-5.181-1.355 c-0.323-0.087-0.65-0.166-0.972-0.254c-1.667-0.456-3.317-0.937-4.965-1.422c-0.368-0.108-0.742-0.208-1.109-0.318 c-1.703-0.509-3.389-1.042-5.07-1.581c-0.302-0.097-0.609-0.186-0.909-0.284c-1.713-0.557-3.41-1.136-5.099-1.724 c-0.261-0.091-0.527-0.175-0.788-0.267c-1.63-0.573-3.241-1.168-4.847-1.77c-0.313-0.117-0.632-0.227-0.943-0.345 c-1.574-0.596-3.128-1.215-4.678-1.839c-0.334-0.134-0.674-0.261-1.007-0.396c-1.566-0.638-3.113-1.299-4.653-1.964 c-0.305-0.132-0.617-0.256-0.921-0.389c-1.523-0.666-3.024-1.353-4.521-2.046c-0.312-0.144-0.631-0.281-0.942-0.426 c-1.447-0.678-2.872-1.376-4.293-2.079c-0.348-0.172-0.705-0.336-1.052-0.51c-1.397-0.699-2.771-1.42-4.141-2.143 c-0.357-0.188-0.723-0.369-1.079-0.559c-1.334-0.713-2.644-1.447-3.951-2.183c-0.378-0.213-0.766-0.417-1.141-0.631 c-1.288-0.735-2.551-1.491-3.812-2.248c-0.379-0.228-0.769-0.447-1.146-0.676c-1.233-0.751-2.441-1.523-3.648-2.294 c-0.388-0.248-0.788-0.488-1.173-0.739c-1.153-0.749-2.279-1.518-3.406-2.285c-0.422-0.287-0.855-0.566-1.273-0.855 c-1.086-0.753-2.144-1.525-3.205-2.295c-0.439-0.319-0.891-0.628-1.325-0.95c-1.024-0.758-2.02-1.534-3.02-2.308 c-0.45-0.348-0.914-0.688-1.359-1.04c-0.954-0.754-1.88-1.527-2.811-2.296c-0.468-0.386-0.949-0.764-1.411-1.154 c-0.9-0.761-1.771-1.539-2.647-2.313c-0.468-0.413-0.95-0.817-1.411-1.234c-0.838-0.758-1.646-1.534-2.461-2.305 c-0.475-0.449-0.964-0.889-1.431-1.342c-0.783-0.76-1.535-1.536-2.296-2.308c-0.472-0.479-0.959-0.949-1.423-1.432 c-0.735-0.767-1.439-1.55-2.152-2.328c-0.451-0.493-0.918-0.977-1.361-1.475c-1.694-6.591-2.553-13.351-2.553-20.095 c0-1.5,0.047-3.064,0.139-4.649c0.19-3.13,0.555-6.236,1.083-9.234c10.498-59.932,87.149-105.126,178.297-105.126 c91.148,0,167.8,45.194,178.298,105.127c0.529,3.001,0.894,6.107,1.083,9.232c0.092,1.589,0.139,3.153,0.139,4.65 c0,6.746-0.859,13.505-2.553,20.094c-0.539,0.606-1.105,1.197-1.658,1.796c-0.616,0.667-1.218,1.342-1.85,2.001 c-0.557,0.581-1.142,1.148-1.712,1.723c-0.668,0.674-1.324,1.355-2.01,2.02c-0.551,0.534-1.126,1.054-1.688,1.582 c-0.733,0.69-1.455,1.385-2.205,2.064c-0.545,0.493-1.114,0.972-1.668,1.46c-0.794,0.698-1.578,1.402-2.391,2.089 c-0.54,0.456-1.103,0.899-1.651,1.35c-0.853,0.702-1.698,1.41-2.571,2.1c-0.523,0.413-1.066,0.812-1.595,1.221 c-0.924,0.712-1.84,1.429-2.785,2.128c-0.505,0.373-1.029,0.734-1.539,1.103c-0.992,0.718-1.979,1.439-2.992,2.142 c-0.496,0.344-1.01,0.674-1.511,1.015c-1.05,0.713-2.096,1.429-3.169,2.126c-0.475,0.309-0.966,0.605-1.446,0.91 c-1.119,0.713-2.235,1.428-3.377,2.124c-0.462,0.282-0.94,0.551-1.406,0.83c-1.177,0.704-2.352,1.409-3.552,2.094 c-0.472,0.269-0.958,0.526-1.433,0.793c-1.213,0.68-2.425,1.361-3.661,2.022c-0.441,0.236-0.895,0.46-1.338,0.693 c-1.286,0.677-2.573,1.353-3.882,2.009c-0.433,0.217-0.879,0.422-1.314,0.637c-1.336,0.658-2.672,1.315-4.031,1.952 c-0.396,0.185-0.802,0.36-1.2,0.543c-1.413,0.652-2.827,1.301-4.264,1.929c-0.38,0.166-0.771,0.322-1.153,0.487 c-1.465,0.631-2.933,1.26-4.421,1.866c-0.427,0.174-0.865,0.337-1.294,0.509c-1.456,0.584-2.914,1.166-4.391,1.726 c-0.407,0.154-0.823,0.298-1.231,0.45c-1.512,0.564-3.026,1.126-4.56,1.665c-0.367,0.129-0.741,0.248-1.109,0.375 c-1.584,0.549-3.172,1.093-4.777,1.615c-0.429,0.139-0.865,0.267-1.295,0.404c-1.555,0.496-3.111,0.99-4.685,1.461 c-0.467,0.14-0.943,0.267-1.411,0.404c-1.548,0.454-3.097,0.906-4.663,1.335c-0.435,0.119-0.878,0.227-1.314,0.344 c-1.607,0.432-3.215,0.861-4.839,1.266c-0.547,0.136-1.102,0.259-1.65,0.392c-1.525,0.371-3.049,0.742-4.588,1.089 c-0.499,0.112-1.006,0.212-1.506,0.322c-1.597,0.351-3.195,0.701-4.806,1.026c-0.501,0.101-1.008,0.189-1.51,0.287 c-1.618,0.318-3.237,0.634-4.869,0.926c-0.634,0.113-1.275,0.21-1.911,0.32c-1.509,0.259-3.016,0.521-4.535,0.758 c-0.771,0.12-1.549,0.221-2.322,0.336c-1.393,0.206-2.783,0.418-4.183,0.604c-0.864,0.115-1.735,0.21-2.602,0.317 c-1.32,0.164-2.637,0.336-3.963,0.483c-0.837,0.093-1.68,0.165-2.52,0.251c-1.364,0.14-2.725,0.287-4.094,0.408 c-0.895,0.079-1.797,0.137-2.695,0.209c-1.321,0.105-2.64,0.219-3.966,0.307c-1.071,0.071-2.149,0.119-3.224,0.178 c-1.159,0.065-2.314,0.141-3.476,0.192c-1.589,0.07-3.185,0.113-4.779,0.159c-0.427,0.012-0.853,0.028-1.28,0.042 C223.028,323.348,222.617,323.359,222.204,323.367z M215.99,355.436c-113.225,0-205.34-61.081-205.34-136.16 c0-1.833,0.053-3.622,0.159-5.32c0.153-2.61,0.416-5.212,0.784-7.765c0.027,0.13,0.06,0.259,0.087,0.389 c0.099,0.47,0.21,0.939,0.316,1.408c0.145,0.637,0.29,1.273,0.448,1.906c0.131,0.526,0.27,1.05,0.41,1.573 c0.152,0.571,0.307,1.141,0.47,1.709c0.159,0.555,0.323,1.109,0.492,1.662c0.164,0.537,0.334,1.073,0.508,1.608 c0.182,0.562,0.367,1.123,0.559,1.683c0.185,0.538,0.38,1.074,0.574,1.61c0.197,0.541,0.392,1.083,0.598,1.622 c0.235,0.613,0.483,1.221,0.729,1.83c0.182,0.449,0.357,0.899,0.546,1.346c14.658,34.749,49.214,63.599,94.612,81.218 c0.082,0.032,0.161,0.066,0.243,0.098c0.063,0.025,0.128,0.047,0.192,0.072c3.274,1.263,6.602,2.47,9.984,3.614 c0.289,0.098,0.579,0.192,0.869,0.289c1.386,0.464,2.78,0.917,4.183,1.36c0.338,0.107,0.676,0.214,1.015,0.319 c5.194,1.618,10.503,3.094,15.916,4.425c0.034,0.008,0.069,0.017,0.103,0.025c14.639,3.593,30.033,6.113,45.958,7.425 c0.029,0.002,0.058,0.005,0.087,0.007c3.877,0.318,7.783,0.568,11.72,0.741c0.039,0.002,0.077,0.005,0.116,0.006 c0.11,0.005,0.22,0.006,0.33,0.011c1.889,0.08,3.785,0.141,5.686,0.187c0.492,0.012,0.983,0.024,1.475,0.034 c2.051,0.04,4.107,0.068,6.171,0.068c2.063,0,4.117-0.028,6.166-0.068c0.495-0.01,0.989-0.022,1.484-0.034 c1.9-0.046,3.796-0.107,5.683-0.187c0.144-0.006,0.288-0.01,0.432-0.017c2.205-0.097,4.4-0.219,6.587-0.362 c0.094-0.006,0.187-0.013,0.28-0.019c20.545-1.359,40.259-4.726,58.664-9.817c0.144-0.04,0.288-0.081,0.432-0.121 c3.983-1.109,7.905-2.297,11.759-3.564c0.275-0.09,0.549-0.183,0.824-0.274c1.809-0.602,3.606-1.218,5.385-1.853 c0.073-0.026,0.147-0.051,0.22-0.077c1.927-0.691,3.833-1.404,5.724-2.134c0.051-0.02,0.104-0.038,0.155-0.058 c0.074-0.029,0.146-0.06,0.219-0.088c40.96-15.892,73.091-40.928,89.758-71.19c0.048-0.086,0.097-0.172,0.144-0.259 c0.516-0.943,1.016-1.891,1.502-2.844c0.087-0.17,0.178-0.34,0.265-0.51c0.477-0.948,0.938-1.901,1.385-2.859 c0.23-0.492,0.448-0.987,0.67-1.48c0.297-0.662,0.596-1.324,0.878-1.99c0.264-0.622,0.51-1.248,0.76-1.873 c0.173-0.433,0.351-0.864,0.518-1.298c0.248-0.645,0.483-1.294,0.717-1.942c0.154-0.427,0.309-0.854,0.458-1.282 c0.221-0.64,0.433-1.282,0.64-1.925c0.146-0.453,0.29-0.906,0.429-1.36c0.19-0.618,0.374-1.238,0.551-1.859 c0.143-0.502,0.28-1.005,0.415-1.509c0.155-0.58,0.31-1.16,0.454-1.742c0.143-0.575,0.275-1.153,0.407-1.731 c0.119-0.52,0.241-1.039,0.351-1.561c0.025-0.119,0.055-0.236,0.08-0.355c0.368,2.555,0.631,5.156,0.784,7.767 c0.105,1.693,0.159,3.483,0.159,5.318C421.33,294.355,329.215,355.436,215.99,355.436z" fill="#231F20"/></g><g id="change3_1"><path d="M254.146,211.99l-116.714,94.426L0.703,137.413l116.714-94.426L254.146,211.99z" fill="#008C5D"/></g><g id="change2_2"><path d="M117.491,42.284L0,137.339l137.358,169.78l117.491-95.055L117.491,42.284z M158.202,94.194 c-5.741-3.037-20.867-9.117-34.573,1.973c-0.24,0.181-5.911,4.522-8.977,12.333c-2.229,5.678-7.384,9.8-13.453,10.758 c-5.039,0.795-9.631,2.847-13.647,6.097c-4.042,3.271-7.011,7.479-8.822,12.507c-2.196,6.095-7.555,10.422-13.984,11.293 c-5.269,0.713-10.052,2.783-14.215,6.152c-11.14,9.012-11.784,23.429-8.991,31.787l-14.757-18.24 c-4.18-6.783-5.364-23.939,7.149-34.063c4.02-3.252,8.636-5.25,13.721-5.938c6.801-0.921,12.468-5.498,14.791-11.945 c1.749-4.854,4.612-8.915,8.51-12.068c3.879-3.138,8.312-5.119,13.175-5.886c6.418-1.013,11.87-5.374,14.227-11.38 c2.959-7.538,8.592-11.858,8.662-11.911c16.271-13.162,34.665-1.283,35.724-0.577L158.202,94.194z M51.159,156.084 c4.02-3.252,8.636-5.25,13.72-5.938c6.801-0.921,12.469-5.499,14.791-11.945c1.749-4.854,4.612-8.915,8.51-12.068 c3.879-3.138,8.311-5.119,13.175-5.887c6.417-1.013,11.869-5.373,14.227-11.38c2.959-7.538,8.592-11.857,8.662-11.911 c16.265-13.158,34.655-1.291,35.723-0.578l15.083,18.643c-5.741-3.037-20.868-9.116-34.573,1.973 c-0.24,0.181-5.911,4.522-8.978,12.333c-2.229,5.677-7.383,9.799-13.452,10.758c-5.039,0.795-9.631,2.846-13.648,6.096 c-4.042,3.27-7.01,7.478-8.822,12.507c-2.196,6.095-7.555,10.423-13.984,11.293c-5.269,0.713-10.052,2.783-14.216,6.152 c-11.141,9.014-11.784,23.43-8.99,31.788l-14.383-17.778C39.829,183.354,38.65,166.204,51.159,156.084z M68.008,176.909 c4.02-3.252,8.636-5.25,13.721-5.938c6.801-0.921,12.468-5.498,14.791-11.945c1.75-4.855,4.613-8.916,8.51-12.068 c3.879-3.138,8.312-5.119,13.175-5.886c6.417-1.013,11.869-5.374,14.227-11.38c2.96-7.538,8.593-11.858,8.663-11.911 c16.26-13.154,34.642-1.298,35.722-0.579l17.91,22.138c-5.742-3.037-20.868-9.116-34.573,1.973 c-0.24,0.181-5.911,4.522-8.977,12.333c-2.229,5.678-7.384,9.8-13.453,10.758c-5.039,0.795-9.63,2.846-13.647,6.096 c-4.042,3.271-7.011,7.479-8.822,12.507c-2.196,6.096-7.555,10.423-13.985,11.293c-5.27,0.714-10.052,2.784-14.215,6.152 c-11.14,9.012-11.784,23.429-8.991,31.787l-17.207-21.268C56.678,204.186,55.496,187.032,68.008,176.909z M87.683,201.23 c4.019-3.252,8.635-5.25,13.72-5.939c6.801-0.92,12.468-5.497,14.791-11.944c1.749-4.854,4.612-8.915,8.51-12.068 c3.879-3.138,8.312-5.119,13.175-5.886c6.417-1.013,11.869-5.374,14.227-11.38c2.959-7.538,8.592-11.857,8.662-11.911 c16.264-13.157,34.654-1.291,35.723-0.578l16.215,20.042c-5.74-3.037-20.867-9.116-34.574,1.972 c-0.24,0.181-5.911,4.522-8.977,12.333c-2.229,5.677-7.384,9.799-13.453,10.757c-5.04,0.797-9.631,2.848-13.647,6.098 c-4.042,3.27-7.011,7.478-8.822,12.506c-2.196,6.096-7.554,10.423-13.984,11.294c-5.268,0.712-10.051,2.782-14.215,6.151 c-11.141,9.014-11.784,23.431-8.99,31.788l-15.513-19.174C76.354,228.501,75.173,211.35,87.683,201.23z M105.663,223.452 c4.021-3.252,8.637-5.25,13.72-5.938c6.801-0.921,12.469-5.498,14.791-11.944c1.749-4.854,4.612-8.915,8.51-12.068 c3.878-3.138,8.311-5.118,13.175-5.887c6.417-1.013,11.869-5.374,14.227-11.38c2.959-7.538,8.592-11.858,8.662-11.911 c16.269-13.161,34.662-1.285,35.723-0.578l16.213,20.04c-5.742-3.036-20.868-9.113-34.572,1.973 c-0.24,0.182-5.911,4.522-8.977,12.334c-2.229,5.678-7.384,9.8-13.453,10.757c-5.039,0.795-9.63,2.847-13.647,6.097 c-4.042,3.271-7.011,7.479-8.822,12.507c-2.196,6.096-7.555,10.423-13.984,11.294c-5.268,0.712-10.051,2.782-14.215,6.151 c-11.141,9.014-11.784,23.431-8.99,31.788l-15.512-19.173C94.334,250.729,93.152,233.575,105.663,223.452z M123.642,245.676 c4.021-3.252,8.637-5.25,13.72-5.938c6.801-0.921,12.468-5.498,14.791-11.944c1.749-4.854,4.612-8.915,8.51-12.069 c3.879-3.139,8.312-5.118,13.175-5.886c6.417-1.013,11.869-5.373,14.227-11.38c2.959-7.537,8.592-11.858,8.662-11.911 c16.262-13.157,34.651-1.292,35.723-0.578l16.213,20.04c-5.742-3.037-20.868-9.115-34.573,1.972 c-0.24,0.182-5.911,4.522-8.977,12.334c-2.229,5.678-7.383,9.8-13.453,10.758c-5.039,0.795-9.63,2.847-13.647,6.097 c-4.042,3.271-7.01,7.479-8.822,12.506c-2.196,6.097-7.555,10.424-13.984,11.294c-5.271,0.714-10.053,2.784-14.216,6.152 c-11.141,9.013-11.785,23.43-8.99,31.788l-15.51-19.171C112.313,272.955,111.13,255.799,123.642,245.676z M117.343,43.691 l23.633,29.211c-5.74-3.037-20.868-9.117-34.574,1.972c-0.24,0.181-5.911,4.522-8.977,12.333 c-2.229,5.677-7.383,9.799-13.453,10.758c-5.039,0.795-9.63,2.846-13.647,6.096c-4.042,3.27-7.01,7.478-8.822,12.507 c-2.196,6.095-7.555,10.423-13.984,11.293c-5.269,0.713-10.052,2.783-14.216,6.152c-11.141,9.014-11.784,23.43-8.991,31.787 L1.407,137.488L117.343,43.691z M134.472,301.962c-4.179-6.785-5.362-23.939,7.15-34.062c4.019-3.252,8.635-5.25,13.721-5.939 c6.8-0.92,12.468-5.497,14.791-11.944c1.749-4.854,4.612-8.914,8.51-12.068c3.879-3.139,8.312-5.118,13.175-5.886 c6.417-1.013,11.869-5.374,14.227-11.381c2.959-7.537,8.592-11.858,8.662-11.911c16.268-13.16,34.66-1.286,35.724-0.577l3.012,3.723 l-115.937,93.797L134.472,301.962z" fill="#231F20"/></g><g id="change3_2"><path d="M311.653,214.976l-145.957,35.139L114.814,38.767L260.771,3.628L311.653,214.976z" fill="#008C5D"/></g><g id="change2_3"><path d="M261.258,3.511l-0.117-0.486L114.697,38.281l-0.486,0.117l51.116,212.321l146.93-35.374L261.258,3.511z M145.948,50.672c5.025-1.211,10.053-1.031,14.941,0.531c6.537,2.088,13.621,0.391,18.488-4.434 c3.665-3.633,7.995-6.07,12.869-7.243c4.851-1.167,9.704-1.052,14.425,0.343c6.232,1.842,13.028,0.246,17.736-4.166 c5.91-5.536,12.854-7.018,12.939-7.035c20.338-4.899,31.842,13.709,32.507,14.821l5.754,23.9 c-3.88-5.208-14.928-17.197-32.068-13.069c-0.294,0.061-7.28,1.545-13.404,7.282c-4.451,4.169-10.878,5.678-16.769,3.937 c-4.893-1.446-9.919-1.566-14.943-0.357c-5.054,1.217-9.542,3.742-13.339,7.505c-4.601,4.562-11.298,6.167-17.479,4.192 c-5.063-1.62-10.272-1.805-15.48-0.551c-13.931,3.355-20.705,16.096-21.772,24.844l-5.492-22.812 C124.001,70.437,130.302,54.438,145.948,50.672z M152.359,77.3c5.026-1.21,10.054-1.031,14.941,0.531 c6.536,2.088,13.621,0.39,18.488-4.434c3.665-3.633,7.995-6.069,12.869-7.243c4.851-1.168,9.704-1.053,14.426,0.343 c6.23,1.841,13.026,0.245,17.736-4.166c5.91-5.536,12.853-7.018,12.938-7.035c20.32-4.896,31.833,13.694,32.507,14.82l5.613,23.316 c-3.879-5.208-14.925-17.195-32.068-13.068c-0.294,0.061-7.28,1.545-13.405,7.282c-4.452,4.169-10.876,5.678-16.769,3.937 c-4.89-1.445-9.918-1.566-14.943-0.357c-5.054,1.217-9.542,3.742-13.339,7.505c-4.601,4.562-11.299,6.167-17.479,4.191 c-5.064-1.619-10.271-1.804-15.48-0.551c-13.931,3.355-20.705,16.096-21.772,24.843l-5.352-22.228 C130.412,97.064,136.713,81.067,152.359,77.3z M158.629,103.344c5.027-1.211,10.055-1.032,14.941,0.53 c6.538,2.09,13.621,0.391,18.488-4.434c3.665-3.633,7.995-6.069,12.869-7.243c4.851-1.168,9.704-1.053,14.426,0.343 c6.232,1.841,13.026,0.246,17.735-4.166c5.911-5.536,12.854-7.018,12.939-7.035c20.341-4.901,31.846,13.717,32.507,14.822 l6.665,27.684c-3.88-5.208-14.927-17.195-32.068-13.069c-0.294,0.061-7.28,1.545-13.404,7.282 c-4.451,4.17-10.876,5.678-16.769,3.937c-4.893-1.446-9.919-1.566-14.944-0.357c-5.055,1.217-9.542,3.742-13.338,7.505 c-4.601,4.561-11.3,6.166-17.479,4.192c-5.064-1.62-10.272-1.805-15.48-0.551c-13.932,3.354-20.705,16.096-21.772,24.843 l-6.404-26.598C136.683,123.108,142.984,107.11,158.629,103.344z M165.951,133.758c5.026-1.21,10.053-1.032,14.941,0.53 c6.536,2.088,13.62,0.391,18.488-4.434c3.664-3.633,7.994-6.069,12.869-7.243c4.851-1.168,9.706-1.052,14.426,0.343 c6.231,1.841,13.027,0.246,17.735-4.166c5.91-5.536,12.853-7.018,12.938-7.035c20.322-4.895,31.836,13.699,32.507,14.821 l6.034,25.062c-3.88-5.209-14.927-17.193-32.068-13.068c-0.294,0.061-7.28,1.545-13.404,7.282 c-4.451,4.169-10.877,5.679-16.77,3.937c-4.893-1.446-9.92-1.566-14.943-0.357c-5.055,1.218-9.543,3.743-13.338,7.505 c-4.601,4.562-11.299,6.167-17.479,4.192c-5.064-1.619-10.272-1.803-15.48-0.551c-13.932,3.354-20.705,16.096-21.772,24.844 l-5.772-23.975C144.003,153.524,150.303,137.524,165.951,133.758z M172.641,161.549c5.026-1.21,10.054-1.032,14.941,0.53 c6.535,2.092,13.62,0.391,18.488-4.434c3.664-3.632,7.993-6.069,12.869-7.243c4.85-1.168,9.703-1.053,14.426,0.343 c6.23,1.841,13.026,0.245,17.736-4.166c5.91-5.536,12.853-7.018,12.938-7.035c20.308-4.893,31.818,13.67,32.506,14.819l6.034,25.065 c-3.88-5.208-14.927-17.193-32.068-13.068c-0.294,0.061-7.28,1.545-13.404,7.282c-4.451,4.169-10.876,5.678-16.77,3.936 c-4.892-1.445-9.918-1.564-14.942-0.357c-5.056,1.217-9.543,3.743-13.339,7.505c-4.601,4.562-11.299,6.167-17.479,4.191 c-5.065-1.619-10.274-1.804-15.48-0.551c-13.931,3.355-20.705,16.096-21.772,24.844l-5.772-23.974 C150.694,181.315,156.994,165.316,172.641,161.549z M179.332,189.34c5.025-1.21,10.053-1.031,14.941,0.531 c6.537,2.089,13.621,0.39,18.488-4.434c3.663-3.633,7.993-6.07,12.869-7.244c4.849-1.167,9.701-1.052,14.425,0.343 c6.23,1.842,13.026,0.245,17.736-4.166c5.91-5.536,12.853-7.018,12.938-7.036c20.315-4.892,31.827,13.684,32.507,14.82l6.035,25.066 c-3.879-5.207-14.926-17.192-32.068-13.07c-0.294,0.061-7.28,1.545-13.405,7.281c-4.452,4.17-10.876,5.679-16.769,3.938 c-4.89-1.446-9.919-1.565-14.943-0.357c-5.055,1.218-9.542,3.742-13.338,7.505c-4.602,4.563-11.3,6.168-17.48,4.192 c-5.063-1.619-10.271-1.804-15.48-0.551c-13.931,3.354-20.705,16.096-21.772,24.843l-5.772-23.977 C157.387,209.104,163.687,193.107,179.332,189.34z M260.402,4.231l8.795,36.532c-3.88-5.206-14.933-17.198-32.069-13.072 c-0.294,0.061-7.281,1.545-13.405,7.282c-4.452,4.168-10.875,5.677-16.769,3.937c-4.891-1.446-9.917-1.565-14.943-0.357 c-5.054,1.217-9.542,3.742-13.339,7.505c-4.601,4.561-11.298,6.167-17.479,4.192c-5.065-1.62-10.273-1.805-15.48-0.551 c-13.931,3.355-20.705,16.096-21.772,24.844l-8.524-35.407L260.402,4.231z M164.935,244.818c-0.859-7.923,5.442-23.92,21.088-27.686 c5.027-1.212,10.055-1.032,14.941,0.531c6.536,2.088,13.621,0.389,18.488-4.435c3.665-3.633,7.994-6.069,12.869-7.243 c4.851-1.167,9.704-1.053,14.426,0.344c6.228,1.841,13.026,0.245,17.735-4.166c5.911-5.536,12.854-7.018,12.939-7.035 c20.335-4.899,31.839,13.703,32.507,14.821l1.121,4.657l-144.984,34.905L164.935,244.818z" fill="#231F20"/></g><g id="change3_3"><path d="M363.339,243.935l-146.999-30.487L260.485,0.591l146.999,30.487L363.339,243.935z" fill="#008C5D"/></g><g id="change2_4"><path d="M260.097,0l-44.349,213.835l147.978,30.69L408.075,30.69L260.097,0z M260.873,1.182l146.021,30.284 l-7.63,36.791c-1.287-6.365-6.166-21.922-23.428-25.502c-0.293-0.071-7.245-1.708-15.229,0.867 c-5.804,1.873-12.26,0.496-16.846-3.593c-3.809-3.396-8.305-5.648-13.363-6.698c-5.092-1.056-10.228-0.687-15.266,1.097 c-6.106,2.162-12.85,0.758-17.598-3.666c-3.889-3.625-8.52-6.014-13.766-7.103c-14.039-2.913-25.596,5.724-30.29,13.181 L260.873,1.182z M223.716,180.344c2.602-7.531,15.126-19.315,30.884-16.044c5.063,1.049,9.533,3.355,13.287,6.854 c5.02,4.677,12.151,6.163,18.613,3.877c4.863-1.722,9.82-2.079,14.729-1.061c4.885,1.013,9.225,3.188,12.9,6.464 c4.851,4.324,11.678,5.778,17.818,3.799c7.708-2.483,14.619-0.863,14.703-0.843c20.485,4.248,22.952,25.994,23.078,27.274 l-5.235,25.243c-1.287-6.365-6.166-21.923-23.428-25.503c-0.293-0.069-7.244-1.707-15.23,0.868 c-5.804,1.871-12.26,0.495-16.846-3.594c-3.808-3.396-8.304-5.648-13.362-6.697c-5.09-1.058-10.229-0.688-15.267,1.097 c-6.107,2.163-12.85,0.758-17.597-3.666c-3.891-3.625-8.522-6.015-13.766-7.102c-14.03-2.906-25.593,5.725-30.29,13.181 L223.716,180.344z M346.87,182.414c-0.293-0.072-7.243-1.71-15.229,0.867c-5.808,1.874-12.26,0.495-16.846-3.593 c-3.809-3.395-8.305-5.648-13.363-6.698c-5.093-1.056-10.227-0.688-15.266,1.098c-6.107,2.16-12.85,0.757-17.598-3.666 c-3.89-3.625-8.521-6.015-13.766-7.102c-14.029-2.909-25.594,5.726-30.29,13.182l5.009-24.151 c2.605-7.53,15.12-19.314,30.884-16.042c5.063,1.05,9.533,3.356,13.287,6.854c5.021,4.679,12.153,6.165,18.612,3.877 c4.864-1.722,9.819-2.079,14.729-1.061c4.885,1.013,9.226,3.188,12.9,6.465c4.851,4.324,11.678,5.776,17.818,3.799 c7.708-2.485,14.62-0.864,14.704-0.844c20.49,4.25,22.953,26.008,23.078,27.275l-5.235,25.242 C369.012,201.553,364.133,185.995,346.87,182.414z M352.676,154.424c-0.293-0.072-7.244-1.708-15.23,0.867 c-5.804,1.873-12.259,0.495-16.846-3.593c-3.809-3.395-8.305-5.648-13.363-6.698c-5.093-1.056-10.229-0.686-15.266,1.098 c-6.108,2.162-12.851,0.757-17.597-3.666c-3.89-3.625-8.521-6.014-13.766-7.102c-14.031-2.909-25.594,5.726-30.291,13.182 l5.009-24.151c2.606-7.532,15.133-19.311,30.883-16.041c5.062,1.049,9.532,3.355,13.287,6.854c5.021,4.68,12.154,6.164,18.612,3.877 c4.864-1.722,9.82-2.08,14.729-1.061c4.884,1.013,9.225,3.188,12.9,6.464c4.85,4.325,11.677,5.779,17.817,3.799 c7.709-2.485,14.62-0.864,14.704-0.843c20.476,4.246,22.95,25.975,23.078,27.273l-5.236,25.245 C374.817,173.564,369.939,158.004,352.676,154.424z M358.48,126.434c-0.293-0.071-7.245-1.708-15.23,0.867 c-5.807,1.873-12.261,0.496-16.845-3.593c-3.81-3.396-8.306-5.649-13.363-6.698c-5.09-1.055-10.227-0.687-15.267,1.098 c-6.109,2.163-12.852,0.756-17.597-3.666c-3.891-3.625-8.521-6.015-13.766-7.102c-14.037-2.909-25.594,5.724-30.29,13.179 l5.556-26.789c2.605-7.531,15.124-19.309,30.883-16.041c5.063,1.05,9.533,3.356,13.287,6.854c5.021,4.679,12.152,6.165,18.612,3.877 c4.864-1.723,9.821-2.08,14.729-1.061c4.884,1.013,9.225,3.188,12.9,6.464c4.849,4.324,11.678,5.779,17.818,3.799 c7.707-2.487,14.619-0.864,14.703-0.843c20.477,4.246,22.951,25.978,23.078,27.273l-5.783,27.884 C380.621,145.571,375.743,130.014,358.48,126.434z M364.833,95.804c-0.293-0.071-7.245-1.708-15.229,0.867 c-5.809,1.873-12.262,0.494-16.846-3.593c-3.81-3.396-8.306-5.649-13.363-6.698c-5.089-1.055-10.229-0.688-15.267,1.098 c-6.107,2.162-12.851,0.758-17.597-3.666c-3.89-3.625-8.521-6.015-13.766-7.103c-14.032-2.911-25.593,5.724-30.29,13.18 l4.643-22.386c2.603-7.532,15.13-19.314,30.885-16.044c5.062,1.049,9.532,3.355,13.287,6.854c5.021,4.679,12.154,6.165,18.612,3.877 c4.862-1.722,9.819-2.079,14.729-1.061c4.885,1.013,9.226,3.188,12.9,6.465c4.85,4.324,11.677,5.778,17.818,3.799 c7.709-2.486,14.62-0.864,14.704-0.843c20.489,4.249,22.953,26.005,23.078,27.275l-4.87,23.482 C386.974,114.941,382.095,99.384,364.833,95.804z M370.273,69.574c-0.293-0.071-7.245-1.708-15.23,0.867 c-5.808,1.875-12.261,0.495-16.846-3.593c-3.809-3.395-8.305-5.648-13.363-6.698c-5.092-1.057-10.227-0.688-15.266,1.098 c-6.108,2.163-12.851,0.758-17.597-3.666c-3.891-3.625-8.521-6.015-13.766-7.102c-14.029-2.907-25.594,5.727-30.291,13.183 l4.765-22.977c2.601-7.53,15.121-19.317,30.884-16.046c5.064,1.05,9.534,3.356,13.287,6.854c5.021,4.679,12.155,6.164,18.613,3.876 c4.862-1.721,9.817-2.079,14.729-1.06c4.885,1.013,9.226,3.188,12.9,6.464c4.851,4.324,11.678,5.777,17.818,3.799 c7.707-2.487,14.618-0.864,14.703-0.843c20.478,4.246,22.951,25.979,23.078,27.273l-4.993,24.073 C392.414,88.713,387.536,73.154,370.273,69.574z M362.951,243.344L216.93,213.06l0.981-4.731 c2.607-7.531,15.133-19.298,30.883-16.041c5.062,1.05,9.532,3.356,13.287,6.855c5.021,4.678,12.152,6.164,18.612,3.877 c4.864-1.725,9.82-2.077,14.729-1.062c4.885,1.013,9.225,3.188,12.899,6.465c4.851,4.324,11.678,5.778,17.818,3.799 c7.707-2.484,14.619-0.863,14.704-0.844c20.476,4.247,22.95,25.977,23.078,27.274L362.951,243.344z" fill="#231F20"/></g></svg>